# xmcd
#
# Track frame offsets:
#	150
#	19710
#	38805
#	61003
#	70881
#	92137
#	116625
#	137401
#	141643
#	157352
#	178606
#	199673
#	211252
#
# Disc length: 3093 seconds
# Revision: 0
# Processed by: cddbd v1.5.2PL0 Copyright (c) Steve Scherf et al.
# Submitted via: dBpowerAMP V12.0
#
DISCID=bd0c130d
DTITLE=The California Honeydrops - Like You Mean It!
DYEAR=2013
DGENRE=Americana
TTITLE0=Here Comes Love
TTITLE1=Like This, Like That
TTITLE2=Carolina Peach
TTITLE3=All Day, All Night
TTITLE4=Like You Mean It
TTITLE5=Just Another Day
TTITLE6=Just Because
TTITLE7=Say a Prayer for Me
TTITLE8=Other Shore
TTITLE9=In Your Power
TTITLE10=Got The Feeling
TTITLE11=Bedside Window
TTITLE12=Baby Boy Bues
EXTD=
EXTT0=
EXTT1=
EXTT2=
EXTT3=
EXTT4=
EXTT5=
EXTT6=
EXTT7=
EXTT8=
EXTT9=
EXTT10=
EXTT11=
EXTT12=
PLAYORDER=
